<?xml version="1.0" encoding="UTF-8"?>
<svg version="1.1" xmlns="http://www.w3.org/2000/svg" width="1109" height="1112">
<path d="M0 0 C0.78944 -0.00807175 1.57888 -0.01614349 2.39224243 -0.02445984 C4.05785999 -0.03820892 5.72350464 -0.04897153 7.38916016 -0.05688477 C9.05461176 -0.06831844 10.72002927 -0.08863092 12.38525391 -0.1184082 C33.03354592 -0.48602749 54.73751717 2.77082512 70.5390625 17.23828125 C71.29832031 17.92921875 72.05757812 18.62015625 72.83984375 19.33203125 C78.21583333 24.46406836 82.49721261 30.01305265 86.5390625 36.23828125 C87.52261719 35.49964844 88.50617188 34.76101563 89.51953125 34 C117.28784116 13.53663537 150.51009585 0.34274322 185.31640625 0 C186.5317379 -0.01210762 186.5317379 -0.01210762 187.7716217 -0.02445984 C189.478342 -0.03819373 191.18508853 -0.0489629 192.8918457 -0.05688477 C194.59896175 -0.06833326 196.30604405 -0.0886702 198.01293945 -0.1184082 C219.04847805 -0.48316277 238.55942967 3.05165541 255.5390625 16.23828125 C256.47685547 16.92857422 256.47685547 16.92857422 257.43359375 17.6328125 C276.28050965 32.39552089 283.01566689 59.11409963 285.92578125 81.68048096 C287.2596778 94.05501113 286.92126773 106.58620254 286.89042664 119.01656723 C286.87898019 124.14947694 286.89926204 129.28198656 286.92541504 134.41482544 C286.99648131 148.99391104 287.05226976 163.57258894 287.01953125 178.15185547 C287.00162134 186.24204831 287.0234032 194.33115039 287.08803415 202.42111599 C287.1203967 206.67722432 287.1337301 210.93128364 287.09733582 215.18740463 C286.94384285 234.47414962 287.86899937 250.08330342 298.23144531 267.07141495 C302.92497518 274.84911304 307.38176334 282.94535029 305.5390625 292.23828125 C304.01476358 297.12450611 301.99987283 300.53829575 297.60354805 303.37721443 C292.97255045 305.308736 287.75383493 304.77957913 282.82006836 304.73999023 C281.53975235 304.74539322 280.25943634 304.7507962 278.94032288 304.75636292 C275.4402805 304.77028778 271.94073133 304.75916979 268.44071651 304.7426517 C264.77285705 304.72876948 261.10502531 304.73526477 257.43714905 304.73878479 C251.279552 304.74148408 245.1221502 304.72803452 238.96459961 304.70483398 C231.85037782 304.67821408 224.73648215 304.67648188 217.62222761 304.68822235 C210.77072355 304.69900852 203.91933721 304.69280727 197.06784248 304.67866707 C194.15526095 304.6729157 191.2427658 304.6729832 188.33018303 304.67773247 C184.26282932 304.68339922 180.19596109 304.66416699 176.12866211 304.64233398 C174.31831985 304.64908646 174.31831985 304.64908646 172.47140503 304.65597534 C171.36253433 304.64607071 170.25366364 304.63616608 169.1111908 304.6259613 C168.15017928 304.62353141 167.18916777 304.62110151 166.19903469 304.61859798 C162.20650882 304.04775578 159.49131353 302.40919734 156.95703125 299.29296875 C156.34794922 298.21402344 156.34794922 298.21402344 155.7265625 297.11328125 C155.30761719 296.40945313 154.88867188 295.705625 154.45703125 294.98046875 C151.94961169 287.49021967 153.73656297 281.82670305 157.14697266 274.92749023 C157.6476123 273.95755127 158.14825195 272.9876123 158.6640625 271.98828125 C159.67482241 269.95329545 160.68524131 267.91814024 161.6953125 265.8828125 C162.18515625 264.91166504 162.675 263.94051758 163.1796875 262.93994141 C164.89046588 259.53989227 166.54338402 256.11972301 168.1640625 252.67578125 C168.61007812 251.74636719 169.05609375 250.81695313 169.515625 249.859375 C171.38560624 245.07022456 171.66450711 240.30254163 171.66845703 235.20141602 C171.6715538 234.01249252 171.67465057 232.82356903 171.67784119 231.59861755 C171.67587234 230.30537064 171.6739035 229.01212372 171.671875 227.6796875 C171.67302178 226.28935211 171.6745008 224.89901697 171.67628479 223.50868225 C171.67931812 219.72906093 171.67501855 215.94948384 171.66823959 212.16986847 C171.66405867 209.79860979 171.66109714 207.42735205 171.65835571 205.05609131 C171.64281707 193.11670479 171.5972599 181.17752959 171.5390625 169.23828125 C171.53480507 168.33923317 171.53054764 167.44018509 171.52616119 166.51389313 C171.46950958 154.71232694 171.38842721 142.91123282 171.27459717 131.1100769 C171.24129168 127.62403006 171.21445631 124.1380265 171.19317627 120.65188599 C171.16742837 116.52578226 171.1271688 112.40006297 171.07600212 108.27419853 C171.05947451 106.76084383 171.04776893 105.24742704 171.04141426 103.73399544 C170.98426786 91.44019244 169.76094215 80.87217936 161.5390625 71.23828125 C153.24680659 63.32992607 145.89632295 60.70535189 134.53833008 60.82275391 C124.42180403 61.20744859 118.00506484 64.81769333 110.7421875 71.7265625 C104.83969645 78.45582092 102.44946297 85.7201094 102.3447876 94.52485657 C102.32751617 95.81813873 102.31024475 97.1114209 102.29244995 98.44389343 C102.27844512 99.87576119 102.26462696 101.30763078 102.25097656 102.73950195 C102.23324563 104.24955554 102.21524362 105.75960595 102.19699097 107.26965332 C102.03745244 121.10783044 101.95345867 134.94699892 101.88699722 148.78590107 C101.83698141 158.99144329 101.75143563 169.19535523 101.61837602 179.40015918 C101.52772348 186.59965567 101.48044098 193.79871176 101.46341872 200.99875325 C101.45206172 205.28440591 101.42261151 209.56797567 101.34546661 213.8529911 C100.99096221 234.42155378 102.35397 250.25320637 113.5390625 268.23828125 C118.09172244 276.2340047 121.3191218 282.8199078 119.5390625 292.23828125 C117.406237 297.62236513 114.68368823 300.57573732 109.5390625 303.23828125 C106.87909031 303.61859798 106.87909031 303.61859798 103.9669342 303.6259613 C102.30362816 303.64081825 102.30362816 303.64081825 100.60671997 303.65597534 C99.39982513 303.65147369 98.1929303 303.64697205 96.94946289 303.64233398 C95.03161736 303.65262886 95.03161736 303.65262886 93.07502747 303.66313171 C89.5749594 303.68105374 86.07514216 303.67989661 82.57504201 303.67418933 C79.65010702 303.67109597 76.7252201 303.67719157 73.80029196 303.68322808 C66.89847742 303.69726862 59.99678667 303.69571606 53.0949707 303.68432617 C45.98131326 303.6728459 38.86803287 303.68691986 31.75442511 303.71372265 C25.64045373 303.7358941 19.52660059 303.74251378 13.41259187 303.73664623 C9.76379551 303.7332788 6.11524081 303.73567717 2.46647835 303.75289726 C-1.60323767 303.77126625 -5.67222216 303.75716462 -9.74194336 303.73999023 C-10.94681396 303.7496582 -12.15168457 303.75932617 -13.39306641 303.76928711 C-19.70344355 303.71346482 -23.71959862 303.58202629 -28.4609375 299.23828125 C-32.41113697 294.2485556 -33.10179512 290.14593312 -33.01367188 283.84033203 C-31.86586122 276.36029741 -27.98214296 269.82376799 -24.5234375 263.17578125 C-23.75882454 261.66715042 -22.99643655 260.15738977 -22.23632812 258.64648438 C-21.17005313 256.52727882 -20.10094886 254.41026407 -19.01368713 252.30174255 C-16.40061611 247.22889004 -15.33510921 243.68822329 -15.31376648 237.99121094 C-15.30661118 236.68196152 -15.29945587 235.3727121 -15.29208374 234.02378845 C-15.28924342 232.56924462 -15.2865317 231.11470054 -15.28393555 229.66015625 C-15.27767 228.13078151 -15.27102312 226.60140829 -15.26402283 225.07203674 C-15.24298185 220.04412902 -15.23261689 215.01622102 -15.22265625 209.98828125 C-15.21860799 208.25532007 -15.21449104 206.52235905 -15.21030617 204.78939819 C-15.19125036 196.64312756 -15.17702305 188.49686599 -15.1686942 180.35057735 C-15.15893543 170.96146664 -15.13265324 161.57259254 -15.09219331 152.18356514 C-15.06196771 144.91884734 -15.04721902 137.65419708 -15.04391319 130.38941765 C-15.04156903 126.0546303 -15.03269241 121.7200956 -15.00745201 117.38537598 C-14.98405477 113.30099905 -14.97998443 109.21703897 -14.99021339 105.13261223 C-14.99070613 103.64076279 -14.98446366 102.14889203 -14.97065735 100.6571064 C-14.86103123 88.09997922 -16.7968868 77.76195056 -25.4609375 68.23828125 C-33.53162332 60.59236837 -42.62736538 58.75628412 -53.375 58.96875 C-62.08076798 59.37390151 -68.24702703 63.10567096 -74.484375 69.0234375 C-80.47762232 75.73919092 -83.66782571 83.74752533 -83.78892517 92.73171997 C-83.82122978 94.66492851 -83.82122978 94.66492851 -83.85418701 96.63719177 C-83.8678409 98.05386079 -83.88119762 99.47053269 -83.89428711 100.88720703 C-83.91502397 102.38944903 -83.93642928 103.89168192 -83.95845032 105.39390564 C-84.02624456 110.32367954 -84.07191944 115.25353558 -84.11328125 120.18359375 C-84.12052444 121.02703763 -84.12776762 121.87048152 -84.1352303 122.73948431 C-84.20251623 130.72328325 -84.26056675 138.70710884 -84.29875851 146.69110298 C-84.34794841 156.8327733 -84.44005447 166.97195654 -84.59267038 177.11261189 C-84.69675951 184.2782685 -84.74907454 191.44326537 -84.7654286 198.60965145 C-84.77649764 202.86949298 -84.80828991 207.12647146 -84.89655876 211.38547134 C-85.35774739 234.71047148 -82.08508432 250.81902581 -70.4609375 271.23828125 C-66.76992617 278.16839574 -65.23304959 283.35227699 -66.4609375 291.23828125 C-68.56373285 296.62453984 -71.33233614 299.5820552 -76.4609375 302.23828125 C-79.11811638 302.62418461 -79.11811638 302.62418461 -82.02633667 302.63941956 C-83.68747498 302.65861198 -83.68747498 302.65861198 -85.38217163 302.67819214 C-86.58749542 302.67683258 -87.79281921 302.67547302 -89.03466797 302.67407227 C-90.31162537 302.6841481 -91.58858276 302.69422394 -92.90423584 302.7046051 C-96.40020936 302.73105952 -99.89596248 302.73813659 -103.39202642 302.74005246 C-105.57830046 302.74218767 -107.76451879 302.74859756 -109.95077896 302.75654411 C-117.58392127 302.78428233 -125.21690662 302.79655154 -132.85009766 302.79418945 C-139.95592591 302.79238744 -147.06107068 302.82404052 -154.16672599 302.87142044 C-160.27562311 302.91069679 -166.38429727 302.9267391 -172.49331963 302.92482322 C-176.13838826 302.92405971 -179.78284918 302.93253125 -183.4277916 302.96435738 C-187.49513949 302.99890373 -191.56096358 302.9851316 -195.62841797 302.96704102 C-196.8296933 302.98389954 -198.03096863 303.00075806 -199.26864624 303.01812744 C-205.65044124 302.94597974 -209.58234131 302.46157759 -214.19162178 297.85475063 C-217.6177976 293.49152702 -218.89872752 289.09957456 -218.81567383 283.58886719 C-218.07677736 278.69272462 -215.56978302 274.41529982 -213.3359375 270.05078125 C-212.32504007 268.00935258 -211.31462039 265.96768727 -210.3046875 263.92578125 C-209.56992187 262.46011719 -209.56992187 262.46011719 -208.8203125 260.96484375 C-207.10177379 257.51788967 -205.45602139 254.04507984 -203.8359375 250.55078125 C-203.38992188 249.59816406 -202.94390625 248.64554688 -202.484375 247.6640625 C-200.55263433 243.08539472 -200.33218474 239.19385696 -200.32049561 234.21211243 C-200.31752448 233.50450671 -200.31455336 232.79690099 -200.3114922 232.06785268 C-200.30282043 229.69667169 -200.30129824 227.32554129 -200.29980469 224.9543457 C-200.29517537 223.25409335 -200.29015056 221.55384203 -200.28475952 219.85359192 C-200.27164298 215.23353751 -200.26519182 210.61349763 -200.26074886 205.99342752 C-200.25781646 203.10546629 -200.2537113 200.21750902 -200.24924469 197.32954979 C-200.23557068 188.28947509 -200.22590399 179.24940946 -200.2220428 170.20932513 C-200.21756449 159.78223466 -200.20002673 149.35527543 -200.1710422 138.92822486 C-200.14940459 130.86352404 -200.13933738 122.79886009 -200.13800168 114.73413056 C-200.13695499 109.91992947 -200.1310763 105.10585176 -200.11318207 100.29168129 C-200.09666581 95.76003146 -200.09456311 91.22859729 -200.10332108 86.69692802 C-200.10408959 85.03815253 -200.09977326 83.37936527 -200.08986282 81.7206192 C-200.02872999 70.84655209 -201.19937791 62.51070899 -206.0546875 52.57421875 C-206.52777344 51.59710937 -207.00085938 50.62 -207.48828125 49.61328125 C-207.97425781 48.62328125 -208.46023438 47.63328125 -208.9609375 46.61328125 C-210.80525223 42.82681016 -212.64156485 39.03680456 -214.4609375 35.23828125 C-214.789729 34.55926758 -215.11852051 33.88025391 -215.45727539 33.18066406 C-218.2416323 27.14277905 -218.85396626 20.43234634 -216.734375 14.05078125 C-214.67550577 10.16738564 -212.17087518 7.51063148 -208.4609375 5.23828125 C-204.96867827 4.65130297 -201.51691786 4.70212169 -197.98266602 4.73657227 C-196.92843445 4.73116928 -195.87420288 4.7257663 -194.7880249 4.72019958 C-191.30501179 4.70769803 -187.82282299 4.72421479 -184.33984375 4.7421875 C-181.91755632 4.74203253 -179.49526864 4.74054397 -177.07298279 4.73777771 C-171.99637897 4.73639303 -166.92005743 4.74896291 -161.84350586 4.77172852 C-155.3389158 4.80009776 -148.83479536 4.79738064 -142.33017063 4.7846384 C-137.32785539 4.77767995 -132.3256485 4.78547276 -127.32334709 4.79789543 C-124.92518466 4.80240935 -122.5270106 4.80274726 -120.12884712 4.79883003 C-116.77519053 4.79591668 -113.42217862 4.81243232 -110.06860352 4.83422852 C-109.0787999 4.82972687 -108.08899628 4.82522522 -107.06919861 4.82058716 C-100.74251193 4.88883579 -96.29079194 5.70545352 -91.4140625 10.0703125 C-86.62629625 15.63773794 -84.34789652 19.76501674 -84.4609375 27.23828125 C-83.33558594 26.59761719 -82.21023438 25.95695313 -81.05078125 25.296875 C-55.73595478 10.98704708 -29.53557587 0.29746866 0 0 Z " fill="#0B0F10" transform="translate(624.4609375,643.76171875)"/>
<path d="M0 0 C1.11264725 -0.00101212 1.11264725 -0.00101212 2.24777222 -0.00204468 C13.16258076 0.01375441 23.52520588 0.40587421 34.125 3.25 C34.77597656 3.42160645 35.42695313 3.59321289 36.09765625 3.77001953 C75.26894209 14.3270207 105.82708245 40.22194105 126.25 74.80078125 C147.91085715 112.78174863 152.54902683 159.55408871 141.27905273 201.55322266 C134.60306747 224.93168144 122.45407557 245.38902146 106.125 263.25 C105.42552246 264.01739502 105.42552246 264.01739502 104.71191406 264.80029297 C93.33615054 277.1090721 79.97444919 286.53910598 65.125 294.25 C64.48369141 294.58628418 63.84238281 294.92256836 63.18164062 295.26904297 C28.3601279 313.28046197 -15.10849519 318.30681003 -52.875 307.25 C-52.85532306 312.12139424 -52.80284598 316.9910458 -52.72241211 321.86181641 C-52.69948691 323.51210995 -52.68489746 325.16254452 -52.67944336 326.81298828 C-52.6154788 343.00094154 -48.38170847 355.18835049 -40.625 369.4375 C-39.55552143 371.43004044 -38.48772998 373.42348762 -37.421875 375.41796875 C-36.95620117 376.27672607 -36.49052734 377.1354834 -36.01074219 378.02026367 C-33.20386592 383.53083996 -32.7883137 389.60494367 -34.55859375 395.54296875 C-36.63011456 400.124382 -39.10419019 403.29930955 -43.875 405.25 C-48.35111965 405.85398516 -52.80155495 405.79615541 -57.3125 405.76757812 C-58.68295026 405.773003 -60.05339468 405.78012771 -61.42382812 405.78881836 C-65.13464736 405.80701167 -68.84502041 405.80000102 -72.55584717 405.78730202 C-76.44479549 405.77715349 -80.33370638 405.78657283 -84.22265625 405.79284668 C-90.75267372 405.80011772 -97.28251005 405.79054976 -103.8125 405.77148438 C-111.35505185 405.74971654 -118.89717116 405.7567683 -126.43971252 405.77879 C-132.92313837 405.79695959 -139.40643423 405.79949474 -145.88987732 405.78903532 C-149.75885098 405.78280891 -153.62762153 405.78194111 -157.49658203 405.79518127 C-161.13456402 405.80676204 -164.77199 405.79867426 -168.40991211 405.77560425 C-170.37678265 405.76781847 -172.34370039 405.77965409 -174.31054688 405.79211426 C-185.12041126 405.6885715 -185.12041126 405.6885715 -189.875 401.25 C-193.83808008 396.24400411 -194.51263984 392.12472483 -194.42333984 385.79882812 C-193.30656993 378.57114896 -189.45753056 372.35668389 -186 366 C-184.87150273 363.88437021 -183.7503746 361.76527813 -182.63790894 359.64117432 C-181.94949455 358.33101644 -181.25122816 357.02596543 -180.54104614 355.72747803 C-176.22655396 347.62448907 -175.58041954 340.04166023 -175.60757446 331.00457764 C-175.60304335 329.89139923 -175.59851224 328.77822083 -175.59384382 327.63130975 C-175.58121121 323.91139053 -175.58281948 320.19161794 -175.58447266 316.47167969 C-175.5784867 313.80034342 -175.57173727 311.12901851 -175.56411743 308.45768738 C-175.54753937 301.96028882 -175.54200933 295.46292656 -175.54089268 288.96550861 C-175.53994067 283.68118599 -175.53582276 278.3968753 -175.52949142 273.11255646 C-175.5118876 258.11345829 -175.50265119 243.11438869 -175.50415237 228.11528012 C-175.50423228 227.30750624 -175.5043122 226.49973235 -175.50439453 225.66748047 C-175.50447629 224.85871437 -175.50455805 224.04994828 -175.50464229 223.21667412 C-175.50545491 210.11435768 -175.48632109 197.01215627 -175.4581178 183.9098731 C-175.42935283 170.43980588 -175.41557949 156.96979471 -175.41730535 143.49969602 C-175.41796801 135.94398973 -175.41253016 128.38840405 -175.39094925 120.83272552 C-175.37268979 114.3989495 -175.368429 107.96534874 -175.3819681 101.53155795 C-175.38847398 98.25299342 -175.38650502 94.97483249 -175.3712616 91.69628716 C-175.35576578 88.13168033 -175.36514713 84.56794574 -175.38052368 81.00335693 C-175.37023656 79.9815391 -175.35994943 78.95972127 -175.34935057 77.90693927 C-175.45829819 66.41793961 -179.91868951 56.55796519 -184.875 46.375 C-185.51308594 45.02921875 -185.51308594 45.02921875 -186.1640625 43.65625 C-187.96122054 39.9186023 -189.73045167 36.31625264 -192.12890625 32.92578125 C-194.80058836 28.83159278 -195.05835823 25.06315367 -194.875 20.25 C-193.27306304 14.50187328 -190.80427997 11.5677846 -185.875 8.25 C-180.73982822 6.44561952 -175.99972825 5.95719933 -170.60400391 5.9753418 C-169.40983604 5.9676754 -169.40983604 5.9676754 -168.19154358 5.95985413 C-165.57813857 5.946034 -162.96499955 5.94690924 -160.3515625 5.94921875 C-158.52224633 5.94532748 -156.69293106 5.94099193 -154.86361694 5.93623352 C-151.03567573 5.92878747 -147.20782677 5.92905073 -143.37988281 5.93432617 C-138.49212977 5.94011675 -133.60475617 5.92319189 -128.71706581 5.8999815 C-124.94049905 5.885197 -121.16402267 5.8843789 -117.3874321 5.88749123 C-115.58623885 5.88698032 -113.78504024 5.88178626 -111.98387527 5.87167931 C-96.36908938 5.79480952 -86.35171846 7.84149723 -74.9375 19 C-73.20390472 20.7533401 -71.97863325 22.0427335 -70.875 24.25 C-67.62714319 22.80163142 -65.28973872 20.96363433 -62.625 18.625 C-44.63504443 4.13309134 -22.53219604 0.01832164 0 0 Z M-42.875 69.25 C-49.7845689 77.8540932 -52.98193002 86.99319485 -53.01544189 98.05386353 C-53.02115204 99.18909454 -53.02686218 100.32432556 -53.03274536 101.49395752 C-53.03386322 102.72523376 -53.03498108 103.95651001 -53.03613281 105.22509766 C-53.04109772 106.5331839 -53.04606262 107.84127014 -53.05117798 109.18899536 C-53.06425134 112.76784357 -53.07073733 116.34667306 -53.07518864 119.9255414 C-53.07812835 122.16661482 -53.08223488 124.40768324 -53.08669281 126.64875412 C-53.10035615 133.67535553 -53.11002776 140.70194537 -53.1138947 147.72855914 C-53.11836881 155.81186511 -53.13589144 163.89500144 -53.1648953 171.97825587 C-53.18659025 178.24433341 -53.19660318 184.51036351 -53.19793582 190.77647817 C-53.19897853 194.51038044 -53.20477113 198.244123 -53.22275543 201.97798538 C-53.24246768 206.15160475 -53.2379162 210.32487417 -53.23144531 214.49853516 C-53.2406601 215.71766602 -53.24987488 216.93679688 -53.2593689 218.19287109 C-53.19092676 232.35222465 -49.89573584 243.91174943 -40.25 254.5 C-30.82097407 263.49131486 -19.92966994 265.7205519 -7.41796875 265.53515625 C-1.96800058 265.31241161 2.39435095 263.95997261 7.125 261.25 C8.135625 260.693125 9.14625 260.13625 10.1875 259.5625 C20.24036155 251.64854517 26.93332903 243.08769479 29.125 230.25 C29.42151521 225.73201289 29.41878369 221.22307569 29.41552734 216.6965332 C29.42152114 215.3371494 29.42832863 213.97776898 29.43588257 212.61839294 C29.45346627 208.94453884 29.45823479 205.27077805 29.45951414 201.59688592 C29.46094099 199.2951482 29.46522072 196.99343379 29.47050858 194.69170189 C29.48898582 186.64316695 29.49718236 178.59469802 29.49560547 170.54614258 C29.4944057 163.07415163 29.51548149 155.6024503 29.5470928 148.13053256 C29.57335327 141.69114189 29.58396865 135.2518452 29.58269465 128.81240147 C29.58218774 124.97729647 29.58771867 121.14244893 29.60905075 117.30739784 C29.62859817 113.69485695 29.6284469 110.08281471 29.61401749 106.4702549 C29.61097215 104.53453746 29.62749086 102.59881906 29.64489746 100.66317749 C29.56124598 88.85390782 27.26643137 78.10757579 19.125 69.25 C18.526875 68.56164062 17.92875 67.87328125 17.3125 67.1640625 C10.75296803 60.04908629 2.93018588 55.65636301 -6.78125 54.9765625 C-21.9155195 54.49907299 -32.35566719 57.75561317 -42.875 69.25 Z " fill="#0B0F10" transform="translate(369.875,256.75)"/>
<path d="M0 0 C1.57652847 -0.01270432 1.57652847 -0.01270432 3.18490601 -0.02566528 C6.65814327 -0.04905707 10.13093798 -0.05005676 13.60424805 -0.04882812 C16.02174558 -0.05592921 18.43924142 -0.06362813 20.85673523 -0.07189941 C25.92488284 -0.08534989 30.99287468 -0.08691075 36.06103516 -0.08105469 C42.54764527 -0.07516331 49.03350571 -0.1057254 55.51997089 -0.14617157 C60.51378895 -0.17205631 65.50742682 -0.17492513 70.50130272 -0.17127991 C72.8922533 -0.17297093 75.28321223 -0.18261164 77.67409706 -0.20042419 C81.02282046 -0.22262407 84.37003061 -0.21290457 87.71875 -0.1953125 C88.70136307 -0.20857574 89.68397614 -0.22183899 90.69636536 -0.23550415 C97.22201042 -0.15607802 101.48494697 1.2529076 106.5534668 5.41992188 C111.04232518 10.14503596 112.80411513 14.52257145 112.80121326 21.01202393 C112.80559526 22.13213206 112.80997726 23.2522402 112.81449205 24.40629101 C112.80914671 25.63185365 112.80380138 26.85741629 112.79829407 28.12011719 C112.80055864 29.42603726 112.80282321 30.73195734 112.80515641 32.07745075 C112.81125679 35.70100038 112.80501436 39.3244404 112.79684579 42.94798207 C112.79025693 46.85684071 112.79526563 50.7656854 112.79907227 54.67454529 C112.80429601 61.44941162 112.80279981 68.22424936 112.79729652 74.99911499 C112.78908014 85.7146844 112.8003154 96.4301922 112.8144989 107.14575195 C112.81910012 110.81349168 112.82355048 114.48123157 112.82793713 118.14897156 C112.82903527 119.06561311 112.83013341 119.98225466 112.83126483 120.92667323 C112.8434389 131.36078105 112.85099054 141.79489085 112.85693359 152.22900391 C112.85748165 153.1827537 112.85802971 154.1365035 112.85859438 155.11915481 C112.86704673 170.56182534 112.86371906 186.00447841 112.85777924 201.44714904 C112.85215555 217.31165233 112.86572786 233.17606799 112.89533204 249.04054451 C112.91284594 258.81958528 112.91453821 268.59837229 112.89568689 278.37741178 C112.8840528 285.08582977 112.89057503 291.79407707 112.9111561 298.50247294 C112.92244053 302.36848006 112.92573317 306.23404679 112.90698051 310.10003471 C112.88678948 314.3016573 112.90555701 318.5022447 112.9276886 322.70385742 C112.90963235 324.51543272 112.90963235 324.51543272 112.89121133 326.3636055 C113.0077965 337.26221887 116.71042879 346.2227068 121.6315918 355.83398438 C122.15237305 356.86136719 122.6731543 357.88875 123.2097168 358.94726562 C123.99862305 360.48060547 123.99862305 360.48060547 124.8034668 362.04492188 C125.87285746 364.14041835 126.94064496 366.23673398 128.0065918 368.33398438 C128.47226562 369.24100098 128.93793945 370.14801758 129.41772461 371.08251953 C131.87875934 376.14742634 132.60524265 381.1504015 130.86987305 386.54492188 C128.75215079 391.18457894 126.17271249 394.98797701 121.5534668 397.41992188 C117.32243599 398.16529256 113.13728694 398.0926807 108.8503418 398.05102539 C106.93227722 398.06175835 106.93227722 398.06175835 104.97546387 398.07270813 C101.47939425 398.09118073 97.98408987 398.07831078 94.48805237 398.05861783 C90.82332516 398.04219522 87.15864504 398.05104923 83.49389648 398.05613708 C77.34045228 398.06065405 71.18731244 398.0448132 65.03393555 398.0168457 C57.92761401 397.98479532 50.82184131 397.98481066 43.7154808 398.00206047 C36.86929213 398.01794418 30.02330397 398.01118024 23.17712402 397.99412346 C20.26813393 397.98726478 17.35930514 397.98827314 14.45031738 397.99566841 C10.38543398 398.00477762 6.32139305 397.98075658 2.2565918 397.95336914 C1.05329224 397.95989502 -0.15000732 397.9664209 -1.38977051 397.97314453 C-7.69233447 397.90091122 -11.70920034 397.75417741 -16.4465332 393.41992188 C-20.39673267 388.43019623 -21.08739082 384.32757374 -20.99926758 378.02197266 C-19.85145693 370.54193804 -15.96773866 364.00540862 -12.5090332 357.35742188 C-11.74442025 355.84879105 -10.98203225 354.3390304 -10.22192383 352.828125 C-9.15564883 350.70891945 -8.08654457 348.5919047 -6.99928284 346.48338318 C-4.73466955 342.08700472 -3.3268527 338.7187917 -3.28717232 333.77174473 C-3.27216012 332.33088531 -3.27216012 332.33088531 -3.25684464 330.86091763 C-3.25088992 329.80318093 -3.24493521 328.74544423 -3.23880005 327.65565491 C-3.22877327 326.53353637 -3.21874649 325.41141783 -3.20841587 324.25529569 C-3.17618965 320.4743373 -3.15134096 316.69336852 -3.12670898 312.91235352 C-3.11142309 310.8972845 -3.09541566 308.88222203 -3.07936026 306.86715902 C-2.87762639 281.40959987 -2.77433892 255.95120758 -2.69084358 230.49302006 C-2.67975681 227.17202243 -2.66846444 223.85102558 -2.65698242 220.5300293 C-2.65271562 219.29201881 -2.65271562 219.29201881 -2.64836262 218.02899801 C-2.60108098 204.71694655 -2.50492533 191.40569999 -2.38941135 178.09408481 C-2.27152303 164.3936108 -2.20406127 150.69355127 -2.18271244 136.99258322 C-2.16940191 129.31383067 -2.13441506 121.63656896 -2.0414772 113.95833015 C-1.96215992 107.40450517 -1.92884432 100.85234556 -1.9515021 94.2980491 C-1.96165859 90.96484487 -1.94512569 87.63809443 -1.88340378 84.30504036 C-1.51714776 63.43499121 -6.66501779 49.47102754 -16.4465332 31.41992188 C-20.09806081 24.45916369 -21.67816264 19.32995577 -20.4465332 11.41992188 C-16.54367037 1.42283469 -9.93427256 -0.02944657 0 0 Z " fill="#0B0F10" transform="translate(593.446533203125,167.580078125)"/>
</svg>
